<?xml version="1.0" encoding="UTF-8"?><svg id="_圖層_2" xmlns="http://www.w3.org/2000/svg" viewBox="0 0 189.57 76.44"><defs><style>.cls-1{fill:#e50012;}</style></defs><g id="_字_x2B_按鈕"><path class="cls-1" d="M37.76,74.92v-16.88H0v-12.81L34.73,1.53h17.48v44h10.49l-1.35,12.51h-9.13v16.88h-14.45ZM37.76,31.87c0-4.15.08-12.51.25-16.32-3.06,4.55-11.91,16.34-22.59,29.97h22.34v-13.65Z"/><path class="cls-1" d="M66.1,74.92v-.67c0-13.47,6.66-23.94,25.04-35.36,12.53-7.74,15.91-10.02,15.91-16.48,0-5.38-3.11-10.35-12.21-10.35-8.36,0-12.12,4.92-13.35,12.57h-14.95c1.09-14.47,11.7-24.63,28.79-24.63s27.14,9.65,27.14,22.3c0,11.44-5.31,16.44-19.95,25.02-9.39,5.54-15.72,10.38-17.81,15.27h40.84l-1.97,12.32h-57.49Z"/><path class="cls-1" d="M128.7,54.1c0-9.4,5.92-14.94,13.06-17.98-5.81-3.05-9.64-8.47-9.64-15.51,0-12.29,10.47-20.61,27.44-20.61,14.51,0,26.77,7.12,26.77,20.8,0,7.58-4.61,12.54-10.11,14.71,7.95,2.75,13.34,9.2,13.34,18.42,0,15.45-15.13,22.52-30.76,22.52-16.42,0-30.11-7.65-30.11-22.35ZM174.02,53.72c0-6.38-3.86-11.72-14.91-11.72s-15.05,5.14-15.05,11.38c0,8.06,7.49,11.85,15.07,11.85s14.9-3.12,14.9-11.51ZM147.18,20.66c0,5.24,3.2,9.86,12.39,9.86,8.56,0,11.61-3.91,11.61-9.72,0-6.14-4.98-9.81-11.98-9.81-6.57,0-12.02,3.01-12.02,9.67Z"/></g></svg>