<?xml version="1.0" encoding="UTF-8"?><svg id="_圖層_2" xmlns="http://www.w3.org/2000/svg" viewBox="0 0 49.79 46.72"><defs><style>.cls-1{fill:none;stroke:#231815;stroke-miterlimit:10;}.cls-2{fill:#231815;}.cls-3{fill:#e50012;}.cls-4{fill:#0058a9;}</style></defs><g id="_外觀_x2B_圖"><polyline class="cls-3" points="34.66 24.36 10.31 39.49 25.43 15.13"/><polyline class="cls-4" points="25.43 15.13 49.79 0 34.66 24.36"/><path class="cls-2" d="M0,46.67v-.34l1.11-.14h.26l1.42.14v.34H0ZM6.04,46.72l-4.74-6.92-.03-.03-.31-.48-.95-.07v-.33h2.15l4.32,6.34-.19.07-.03-3.15v-3.26h.42v7.83h-.63ZM1.02,46.67v-7.51h.39l.08,4.5v3.02h-.48ZM4.92,39.22v-.33h2.79v.33l-1.11.14h-.25l-1.43-.14Z"/><line class="cls-1" x1="12.31" y1="1.31" x2="15.01" y2="4.14"/><line class="cls-1" x1="46.06" y1="36.63" x2="48.79" y2="39.49"/></g></svg>