<?xml version="1.0" encoding="UTF-8"?><svg id="_圖層_2" xmlns="http://www.w3.org/2000/svg" viewBox="0 0 45.47 52.51"><defs><style>.cls-1{fill:none;stroke:#231815;stroke-miterlimit:10;}.cls-2{fill:#231815;}.cls-3{fill:#e50012;}.cls-4{fill:#0058a9;}</style></defs><g id="_外觀_x2B_圖"><polyline class="cls-3" points="21.11 37.38 5.98 13.02 30.34 28.15"/><polyline class="cls-4" points="30.34 28.15 45.47 52.51 21.11 37.38"/><path class="cls-2" d="M0,7.78v-.34l1.11-.14h.26l1.42.14v.34H0ZM6.04,7.83L1.3.91l-.03-.03-.31-.48L.01.33v-.33h2.15l4.32,6.34-.19.07-.03-3.15V0h.42v7.83h-.63ZM1.02,7.78V.26h.39l.08,4.5v3.02h-.48ZM4.92.33v-.33h2.79v.33l-1.11.14h-.25l-1.43-.14Z"/><line class="cls-1" x1="44.16" y1="15.03" x2="41.33" y2="17.73"/><line class="cls-1" x1="8.84" y1="48.78" x2="5.98" y2="51.5"/></g></svg>