<?xml version="1.0" encoding="UTF-8"?><svg id="_圖層_2" xmlns="http://www.w3.org/2000/svg" viewBox="0 0 563.5 177.9"><defs><style>.cls-1,.cls-2{fill:#fff;}.cls-2{stroke:#fff;stroke-miterlimit:10;}.cls-3{fill:#e50012;}</style></defs><g id="_字_x2B_按鈕"><path class="cls-3" d="M4.33,57.62L.28,89.95c-1.28,10.19,1.93,20.44,8.78,28.09h0c8.02,8.95,20.03,13.21,31.91,11.37,8.78-1.36,15.13-26.23,18.23-41.48,2.09-10.3,1.04-21.09-3.46-30.59-.03-.06-.06-.12-.09-.18-5.7-11.94-12-25.81-15.16-26.2-1.87-.23-7.93-4.9-10.53-4.03-4.12,1.38-7.94,3.53-11.28,6.3l-1.79,1.48c-6.95,5.76-11.44,13.95-12.56,22.9Z"/><path class="cls-2" d="M557.06,77.44c-2.17-.61-4.99.96-7.49,1.69-6.25,1.82-12.49,3.7-20.35,6.04.53-10.51,1.56-19.34,1.25-28.12-.32-9.11,3.88-13.73,12.07-16.09,3.5-1.01,6.96-2.18,10.51-3.42,3.43-1.19,4.63-5.47,2.28-8.23-1.05-1.24-2.09-2.27-3.31-3.02-3.78-2.3-8.83-5.44-12.47-4.58-16.05,3.78-32.29,7.82-43.31,21.19l-3.47,3.9,3.88,1.16,16.27-2.93.34-.21c3.76,1.12,4.22,4.36,1.06,8.13-6.75,8.05-13.23,16.49-20.94,23.53-5.33,4.86-4.95,9.36-2.47,14.48,3.63,7.47,10.14,10.13,18.31,10.31,9.3.21,9.5.94,9.31,10.31-.37,18.8-.63,37.61-.78,56.42-.02,3.12.77,6.25,1.19,9.37l2.34-.23c2.29-22.52,5.16-45.01,6.57-67.59.52-8.29,3.59-12.09,10.95-13.94,6.82-1.71,13.76-3.2,20.26-5.78,1.01-.4,1.86-1.19,2.64-2.16,2.21-2.73,1.55-6.73-1.39-8.66-1.03-.68-2.1-1.24-3.24-1.56ZM519.89,78.14c-.38,8.49-8.05,13.72-15.9,10.51-1.63-.67-3.28-4.14-3.02-6.07,1.16-8.66,4.85-12.67,18.96-21.86,0,6.69.19,12.06-.04,17.42Z"/><path class="cls-2" d="M485.15,18.2c-2.29-1.36-4.54-2.78-6.97-3.79-1.63-.68-3.49-.79-5.23-.98-.72-.08-1.31-.62-1.45-1.33-.15-.76-.28-1.31-.13-1.77,1.31-3.89,2.38-7.85-2.88-9.45-5.69-1.72-6.68,2.9-7.29,6.65-1.24,7.52-5.69,11.37-12.59,13.91-8.52,3.14-12.17,11.91-9.45,20.73.29.94,1.3,1.44,2.21,1.08,5.3-2.12,10.63-4.25,16.06-6.42.84-.34,1.84.08,2.18.92,3.81,9.46-5.5,9.87-9.95,14.49-.57.59-.59,1.52-.09,2.17,2.19,2.79,4.35,5.73,6.83,8.37,2.91,3.1,2.44,5.59-.92,7.51-4.9,2.81-9.65,3.19-13.25-2.25-1.91-2.89-3.78-5.81-6.03-9.31-.8-1.24-2.69-.9-3.02.54-3.97,16.92,8.5,28.18,12.89,41.74.1.31.1.64.01.94l6.18,4.59.78,2.09.45,1.21-3.88,2.72-.87.61-43.57,12.5h0c-1.95,1.01-3.9,2.03-5.86,3.03-4.51,2.27-7.71,4.02-5.41,9.31.32.72,1.11,1.11,1.88.95,12.34-2.68,24.62-3.71,35.71-10.71,5.89-3.72,12.74-8.7,20.24-6.18.43.15.8.48.98.9,4.67,10.67-3.59,23.85,7.27,33.41.94.83,2.45.27,2.69-.97.58-2.94,1.1-5.56,1.6-8.1l-.29.25-.65-5.28-.09-.71-2.55-20.68.99-.45,11.28-5.12.23.03c.96-1.55,1.58-3.54,1.39-5.03-.19-1.6-.3-3.18-.36-4.75l-9.4,1.34-2.85.41c-.71-.68-.7-1.8.03-2.46.85-.76,1.71-1.51,2.69-2.04h0c5.75-2.57,9.85-7.78,11.11-13.95,1.46-7.13,3.7-14.12,5.85-21.12,3.91-12.78,1.92-17.46-10.22-23.07-2.14-.99-5.29-3.52-5.11-5,.32-2.6,2.35-5.6,4.57-7.18,2.42-1.73,5.8-2.52,8.85-2.85,6.03-.66,4.44-6.01,6.06-9.31.38-.77.11-1.7-.63-2.14ZM457.25,83.78c-1.27,1.07-2.23,1.92-3.35,2.29-.34.11-1.04-.84-1.74-1.78-.5-.68-.41-1.63.21-2.2.93-.87,1.87-1.73,2.97-2.23.34-.15,1.07.57,1.99,1.45.71.68.68,1.84-.08,2.47ZM464.5,88.01c-.9.39-1.97-.11-2.25-1.05-1.52-5.15.43-7.66,5.26-8.91.94-.24,1.92.38,2.06,1.34.69,4.43-1.13,6.93-5.08,8.63ZM470.26,56.35c.94-.4,2,.11,2.27,1.1.55,2.02,1.15,4.05,1.08,6.05-.06,1.76-1.09,3.48-2,5.36-.34.71-1.14,1.08-1.91.9-6.07-1.49-9.01-4.28-5.94-9.52,1.12-1.91,3.96-2.81,6.51-3.88Z"/><path class="cls-1" d="M150.47,129.6c-.72,2.19-1.2,4.49-2.21,6.54-1.93,3.94-4,7.83-6.32,11.55-1.48,2.37-4.24,2.74-6.83,2.83-4.5.15-6.39-4.18-5.35-8.44,1.09-4.49,4.05-7.85,5.7-11.95,1.28-3.19,1.83-5.87,1.54-9.09-.3-3.41-2.6-5.06-5.83-3.86-1.94.73-4.15,1.29-5.32-.66-1.12-1.85-2.75-3.79-1.37-6.54,3.1-6.17,6.15-12.33,10.55-17.73.63-.78.66-2.05.97-3.1-1.33-.23-2.69-.79-3.97-.63-3.82.47-7.6,1.22-11.89,1.94,1.19-3.85,2.83-6.34,6.18-8.05,7.77-3.96,16.36-5.06,24.54-7.57,2.02-.62,3.58-1.35,4.45-3.51.62-1.54,2.73-2.62,3.59-.94,1.67,3.25,4.75,2.81,7.04,2.87,6.63.17,13.27-.44,19.91-.75.76-.04,1.53-.17,2.28-.12,5.85.35,11.71.55,17.53,1.14,9.35.94,16.44,8.99,16.54,18.33.04,3.87.55,7.75.4,11.61-.3,7.44-.78,14.89-1.45,22.31-.56,6.13-1.96,12.22-2.04,18.33-.03,2.32.87,4.55-.29,6.97-1.03,2.17-1.52,4.59-2.28,6.89-2,6-7.35,7.88-12.53,9.39-1.92.56-4.44-1.38-6.75-1.64-6.34-.71-10.93-4.55-15.74-8.13-2.27-1.69-4.75-3.11-7.02-4.81-.98-.73-1.67-1.84-2.49-2.78.19-.28.37-.56.56-.84.98.11,1.99.1,2.94.35,5.38,1.39,10.68,3.48,16.14,4.02,2.78.28,6.75,1.06,9.06-2.58.96-1.51,3.53-2.37,3.83-3.83,1.04-5.14,4.45-9.97,2.48-15.59-.14-.4-.04-.97.14-1.37,1.13-2.56,1.1-5.09.2-7.72-.29-.85-.07-1.89-.05-2.84.09-2.93.36-5.87.25-8.8-.14-4.02,0-8.18-1.01-12.01-1.27-4.86-.5-10.55-4.55-14.39-1.68-1.59-4.16-3.09-6.37-3.24-7.57-.52-15.17-.45-22.77-.54-1.72-.02-3.58-.09-5.11.52-1.03.41-2.18,1.94-2.26,3.04-.38,5.64-.54,11.31-.56,16.97,0,2.14.84,4.28.81,6.41-.03,1.75-1.06,3.47-1.16,5.22-.31,5.65-.45,11.31-.54,16.97-.04,2.44.35,4.88.3,7.32-.1,4.78-2.17,7.88-6.59,8.06-1.89.08-3.94-2.64-5.81-4.21-.42-.35-.3-1.29-.67-1.79-1.15-1.57-1.33-3.03-.4-4.87.63-1.24.6-2.82.87-4.25-.43-.14-.87-.27-1.3-.41ZM152.62,83.24c-2.03.82-3.91,1.74-5.89,2.33-1.36.41-1.94.98-1.61,2.38.35,1.49,1.19,3.11.89,4.47-.5,2.25-1.55,4.45-2.72,6.48-1.84,3.18-3.96,6.19-6.33,9.82,1.58,1.26,3.05,2.58,4.67,3.68,1.61,1.09,3.35,2,5.07,2.93,1.17.63,2.63,1.89,3.53,1.59,1.67-.56,2.59-2.12,2.6-4.28.04-7.04.23-14.09.64-21.13.17-2.8,1.49-5.59-.85-8.25Z"/><path class="cls-1" d="M67.24,36.57c3.59-.48,7.18-1.04,10.78-1.43,3.51-.38,7.05-.56,10.57-.88,4.56-.41,9.14-.75,13.67-1.36,3.63-.48,7.23-1.24,10.81-2.02,1.6-.35,3.09-1.2,4.7-1.53,5.24-1.08,10.52-2.03,15.78-3.03,5.12-.97,10.24-1.92,15.35-2.91,3.79-.74,7.55-1.59,11.34-2.3,5.65-1.06,11.29-2.62,16.98-2.87,5.63-.25,10.78-2.13,16.17-3.09,5.56-.99,11.15-1.77,16.74-2.59,2.64-.38,5.3-.82,7.96-.89,5.17-.13,9.14,2.57,12.68,5.97.91.88,1.78,2.04,2.13,3.23.99,3.42-.52,5.4-4.06,5.15-5.59-.4-11.2-.8-16.73-1.7-6.15-1.01-12.2.09-18.26.32-5.49.21-10.92,1.83-16.41,2.62-3.56.51-7.19.5-10.76.98-5.4.73-10.83,1.41-16.13,2.61-6.28,1.42-12.43,3.43-18.67,5.07-4.8,1.27-9.66,2.33-14.47,3.56-2.54.65-5.05,1.45-7.57,2.21-4.76,1.43-9.46,3.07-14.28,4.23-2.3.55-4.82.19-7.24.29-.92.04-1.84.23-2.77.29-4.88.34-9.06-.97-12.54-4.67-1.69-1.8-3.99-3.03-6.01-4.53.07-.25.15-.49.22-.74Z"/><path class="cls-1" d="M167.53,66.71c1.03-.73,2.02-1.53,3.1-2.19,3.07-1.86,6.41-3.37,9.17-5.6,1.93-1.56,3.16-4.04,4.52-6.23.21-.34-.43-1.71-.96-1.93-3.51-1.45-6.84-2.06-10.32.68-2.93,2.31-6.46,3.84-9.68,5.78-1.11.67-2.23,1.41-3.1,2.34-3.5,3.75-11.86,3.43-15.29-.82-3.06-3.8-6.29-8.21-11.9-9.06-.49-.07-.89-.7-1.33-1.07.5-.3,1.01-.89,1.48-.86,6.29.31,12.62.38,18.5,3.22,1.13.55,2.68.32,4.03.32,7.38-.03,12.78-5.36,19.44-7.34,4.2-1.25,8.41-1.1,12.69-.5,2.57.36,5.31-.14,7.81.45,3.23.76,6.54,1.5,8.86,4.52,2.83,3.67,2.25,8.2-2.16,9.89-6.6,2.52-13.38,4.57-20.14,6.63-3.48,1.06-7.07,1.79-10.65,2.5-1.23.24-2.56-.03-3.85-.07-.08-.22-.15-.44-.23-.67Z"/><path class="cls-1" d="M165.99,144.84c1.67-1.67,3.16-3.6,5.05-4.95,3.98-2.83,8.19-5.36,12.3-8.01,2.33-1.51,2.41-2.95.26-4.58-5.6-4.24-7.08-11.42-3.66-17.75,2.14-3.95,2.41-8.47.6-11.11-2.6,1.03-5.23,2.07-7.86,3.11-.16-.13-.33-.26-.49-.39.63-1.03,1.25-2.07,1.91-3.08.51-.77,1.01-1.57,1.64-2.25.64-.68,1.35-1.64,2.15-1.77,4.37-.72,8.78-1.27,13.18-1.8,2.17-.26,3.68,1.95,2.83,4.91-1.26,4.38-2.97,8.63-4.53,12.92-.45,1.22-1.21,2.34-1.57,3.58-.74,2.54-.63,4.73,2.19,6.25,2.37,1.27,4.25,3.13,7.19,3.69,3.96.75,6.1,6.56,3.86,9.67-.69.96-2.22,1.36-3.42,1.91-2.66,1.21-5.31,2.44-8.03,3.48-6.26,2.4-12.54,4.75-18.86,6.97-1.19.42-2.64.11-3.96.14-.26-.31-.51-.63-.77-.94Z"/><path class="cls-1" d="M109.49,92.71c3.78-.51,5.39.75,6.29,3.8,1.08,3.67,2.89,7.12,4.19,10.73.56,1.55.73,3.27.93,4.92.62,5.33,1.23,10.66,1.72,16,.22,2.43.3,4.91.13,7.34-.15,2.19-1.72,4.88-.91,6.41,1.51,2.84-.43,4.47-1.04,6.52-1.18,3.93-8.85,4.64-11.09.73-1.49-2.59-2.77-5.28-2.21-8.56.43-2.53.42-5.17.29-7.74-.25-4.77,1.69-9.01,2.83-13.46.17-.67.25-1.43.12-2.1-.65-3.47-.45-6.85-.05-10.37.41-3.63-.47-7.41-.81-11.13-.09-1.01-.25-2.01-.38-3.08Z"/><path class="cls-1" d="M107.65,46.32c3.66.44,6.03,2.4,8.42,4.39.83.69,1.91,1.73,2.75,1.63,3.15-.37,4.41,1.22,5.21,3.89,1.01,3.34,2.52,6.57,1.13,10.18-1.25,3.25-5.82,4.42-8.42,2.1-1.06-.95-2.03-2.03-3.2-2.82-1.49-1.01-1.77-2.26-1.98-4.01-.53-4.47-1.55-8.89-2.46-13.31-.13-.62-.79-1.14-1.46-2.06Z"/><path class="cls-1" d="M339.85,55.73c-2.94.57-5.51,1.35-8.11,1.5-3.54.2-6.71-3.72-5.81-7.16,1.18-4.49,2.72-8.89,4.04-13.34.62-2.1,1.28-4.21,1.64-6.36.88-5.27,4.41-9.23,6.63-13.83.28-.58.72-1.32,1.25-1.51,2.86-1.03,5.78-1.9,9.46-3.08-.46,1.78-.39,3.41-1.17,4.24-5.77,6.08-7.17,14.32-10.78,21.45-.88,1.73-1.15,3.8-1.56,5.74-.37,1.73.54,2.35,2.13,1.91.91-.26,1.8-.69,2.61-1.19,6.02-3.72,11.67-7.82,15.89-13.7,3.6-5.02,8.87-7.06,14.88-6.71,1.38.08,2.66,1.86,4.53,3.26-2.08,1.86-3.64,3.68-5.58,4.89-3.3,2.07-6,4.62-8.12,7.86-3.76,5.75-7.71,11.38-11.33,17.22-1.04,1.67-1.23,3.86-2.02,6.52,1.84-.28,2.83-.33,3.76-.59,6.17-1.73,12.29-3.64,18.49-5.21,4.19-1.06,9.88,1.46,12.09,5.11.4.67.23,1.81.04,2.68-.27,1.25-.79,2.46-1.4,4.27-1.52.52-3.59,1.22-5.65,1.95-5.05,1.77-8.87,4.64-9.84,10.37-.36,2.14.19,3.36,2.27,3.82,2.95.65,5.4,2.34,5.79,5.25.47,3.51-.82,6.8-3.96,8.97-.94.65-2.2.92-2.96,1.71-1.19,1.25-2.44,2.66-2.99,4.24-.62,1.76.03,3.33,2.35,3.71,4.21.69,7.57,2.59,9.15,7.57-3.41,2.59-7.1,5.23-10.58,8.12-1.21,1-2.26,2.54-2.69,4.04-.61,2.12.33,3.62,2.83,3.95,2.35.31,3.06-.93,3.41-2.86.15-.84.35-1.73.77-2.45,1.24-2.09,3.24-2.4,5.22-.88,3.54,2.72,7.07,5.45,10.59,8.21,3.16,2.48,3.12,5.93-.46,7.75-2.45,1.24-5.35,1.93-8.11,2.19-6.75.63-13.55,1.26-20.32,1.14-5.36-.09-10.71,1.81-16.07.1-.49-.15-1.1.08-2.18.19.35,1.35.53,2.52.96,3.59,2.01,5.11.14,10.19-4.68,12.66-2.62,1.34-4.17-.71-5.27-2.19-2.12-2.87-3.72-6.13-5.46-9.27-.25-.45-.22-1.14-.11-1.67,1.03-4.95,2.12-9.88,3.16-14.83.19-.93.26-1.89.34-2.84.78-8.56,1.2-17.17,2.43-25.67.89-6.15,3.05-12.1,4.27-18.22,1.43-7.2,2.38-14.5,3.69-21.72.47-2.6,1.45-5.11,2.11-7.69.27-1.04.3-2.15.44-3.19ZM356.61,76.45c-3.04-1.01-5.72-1.98-8.44-2.78-1.68-.5-2.71.35-3.2,2-1.89,6.38-3.8,12.75-5.7,19.12-.05.18-.03.37-.05.56-.89,8.62-1.93,17.22-2.63,25.85-.41,5.04-.34,10.12-.35,15.19,0,.81.7,1.62,1.45,3.21,5.33-5.28,10.19-10.09,15.16-15.02-3.12-1.35-5.46-2.35-7.79-3.37-1.73-.76-2.35-2.02-1.3-3.68,2.59-4.1,5.24-8.16,7.92-12.19,2.11-3.17,1.79-4.2-1.8-5.32-5.1-1.59-6.17-4.54-3.13-9.05,2.61-3.89,5.4-7.66,8.08-11.51.63-.9,1.12-1.89,1.77-3.02Z"/><path class="cls-1" d="M283.66,89.57c-1.62,1.2-2.91,2.01-4.03,3.01-4.76,4.29-9.5,8.6-14.19,12.97-2.13,1.98-4.35,3.51-7.44,2.66-3.98-1.1-7.1-3.07-8.11-7.48-.85-3.74-.29-6.66,2.72-9.54,4.19-4,5.13-9.56,5.94-15.18.78-5.43,2.02-10.87,3.85-16.02.8-2.25,3.51-3.89,5.53-5.59.54-.46,2.06-.5,2.56-.07.54.46.67,1.74.54,2.6-.51,3.3-1.61,6.56-1.7,9.85-.09,3.33.76,6.68,1.2,10.03.35.09.7.19,1.05.28,1.61-1.25,3.18-2.55,4.82-3.75,2.46-1.81,5.06-3.44,7.41-5.39,1.23-1.02,2.57-2.4,2.97-3.86,1.08-3.94,1.59-8.03,2.53-12.02.5-2.12,1.21-4.25,2.21-6.17,1.73-3.32,6.65-4.71,9.91-2.23-.22,1.74-.44,3.47-.66,5.24,2.76,2.25,5.37,4.51,8.12,6.56,1.63,1.22,3.21,2.39,2.45,4.65-.8,2.37-1.83,4.7-4.74,5.22-.66.12-1.33.19-1.99.27-5.24.62-7.4,4.25-8.16,8.84-1.19,7.11-2.12,14.26-3.05,21.4-.13.96.34,2,.65,3.61,7-5.32,11.37-12.34,16.3-18.04-.5,2.65-1.11,5.74-1.63,8.84-.05.3.57,1.03.7.99.47-.14.92-.48,1.29-.85.95-.95,1.86-1.96,3.04-3.21.8,5.89-1.36,10.37-4.06,14.53-2.23,3.45-3.83,7.19-7.07,10.21-3.14,2.93-5.59,7.26-6.79,11.42-1.07,3.74-.3,8.12.15,12.16.48,4.34,1.57,8.61,2.28,12.94.3,1.81-.19,3.35-1.97,4.41-.85.5-1.4,1.49-2.28,2.46-2.42-.92-6.18-1.17-7.26-3-2.14-3.62-5.93-4.99-8.35-7.95-1.96-2.4-4.6-2.89-6.93-1.45-4.07,2.51-8.07,1.23-12.01.37-1.35-.29-3.04-1.99-3.31-3.31-.2-.99,1.38-3.07,2.58-3.5,6.97-2.49,12-7.38,16.64-12.79,2.43-2.83,4.75-5.75,7.07-8.67.52-.65,1.15-1.48,1.16-2.23.09-7.52.05-15.05.05-23.21Z"/><path class="cls-1" d="M287.02,38.98c-4.27-.42-8.16-2.39-11.55-5.26-1.91-1.62-2.12-3.83-.62-5.94,2.64-3.72,6.1-6.12,10.72-7,1.99-.38,3.8-1.68,5.71-2.53,2.96-1.31,5.83-3.03,8.93-3.8,7.28-1.79,11.52,2.34,12.43,8.62.32,2.22-2.76,5-4.45,7.41-.73,1.05-1.77,1.96-2.84,2.67-2.35,1.56-4.66,3.49-7.28,4.27-3.43,1.01-7.16,1.05-11.05,1.55Z"/><path class="cls-1" d="M29.31,62.95c-.03-.37,0-.62.12-.75.11-.12.36-.19.75-.19s1.15.15,2.27.45c1.12.3,1.78.71,1.97,1.24.06.22.2.31.42.28.97-.09,1.97-.14,3-.14s1.59.09,1.66.26c.08.17.12.49.12.96s-.09.75-.28.84c-.19.09-1.06.37-2.62.84-1.56.47-2.56.77-2.98.89-.42.12-.63.83-.63,2.11,0,.19.08.33.23.42.16.09.39.13.7.12.31-.02.67-.02,1.08-.02l4.27.19c1.22,0,2.28-.08,3.19-.23s1.55-.23,1.95-.23.76.15,1.1.45c.34.3.76.97,1.24,2.02.48,1.05.73,1.85.73,2.41s-.33.84-.98.84c-.41,0-.94-.16-1.59-.47-2.69-1.34-5.22-2.02-7.59-2.02-.66,0-1.3.05-1.92.14-4.03.69-6.92,1.03-8.67,1.03l-2.63-.09c-1.97,0-3.72.23-5.25.7s-2.69,1.09-3.47,1.87c-.25.25-.47.37-.66.37s-.45-.4-.77-1.19-.49-1.31-.49-1.55.2-.38.61-.45c1.28-.16,2.61-.46,3.98-.91,1.37-.45,2.86-.71,4.45-.77,1.41-.09,2.66-.29,3.77-.59,1.11-.3,1.81-.51,2.09-.63.28-.12.44-.31.47-.56.03-.25.07-.55.12-.89.05-.34.07-.61.07-.8s-.16-.28-.49-.28-.94.09-1.83.26c-.89.17-1.59.37-2.09.59-.5.22-.88.33-1.13.33s-.44-.16-.56-.47l-.84-2.39c-.09-.22-.14-.44-.14-.66s.08-.41.23-.56.38-.22.68-.19c.3.03.48.05.54.05.56,0,1.62-.11,3.19-.33,1.56-.22,2.39-.36,2.49-.42.09-.06.14-.19.14-.37v-1.5ZM27.95,41.67c0,.22-.15.43-.45.63-.3.2-.65.56-1.05,1.05-.41.5-1.03,1.09-1.88,1.78-.84.69-1.52,1.48-2.04,2.37-.52.89-.77,1.54-.77,1.95,0,.84.7,1.64,2.11,2.39.47.25.7.52.7.82s-.05.63-.14,1.01c-.44,1.66-.66,3.09-.66,4.31l.05,1.41c0,.35-.06.62-.19.82-.12.2-.21.7-.26,1.48-.05.78-.15,1.28-.3,1.5-.16.22-.45.33-.89.33s-.71-.07-.82-.21-.24-.83-.4-2.06c-.16-1.23-.23-3.1-.23-5.6,0-.75-.16-1.35-.47-1.8s-.55-.68-.7-.68-.33.06-.52.19c-1.25.97-2.34,1.68-3.28,2.13-.94.45-1.53.68-1.78.68s-.37-.12-.37-.37c0-.87,1.66-3.19,4.97-6.94,1-1.16,3.02-4.2,6.05-9.14.19-.31.42-.47.7-.47s.79.33,1.52.98c.73.66,1.1,1.14,1.1,1.45ZM36.2,55.27c0,.31.12.47.37.47,1.53.03,2.85.12,3.96.26,1.11.14,1.87.37,2.27.68.41.31.61.87.61,1.69,0,1.31-.31,1.97-.94,1.97-.47,0-1.73-.83-3.8-2.49-.31-.25-.68-.52-1.1-.8-.42-.28-.7-.47-.82-.56-.12-.09-.25-.14-.37-.14s-.19.14-.19.42l.05,3.66c0,1-.3,1.5-.89,1.5-.34,0-1.1-.26-2.27-.77-1.17-.52-2.38-1.19-3.63-2.04-.16-.09-.3-.14-.42-.14s-.23.08-.33.23c-.47,1.03-.77,1.66-.91,1.9s-.3.35-.49.35-.55-.28-1.1-.84-.82-.92-.82-1.08.11-.31.33-.47c.66-.56,1.37-1.31,2.13-2.25.77-.94,1.15-1.45,1.15-1.55s-.08-.14-.23-.14c-.31,0-.71.11-1.2.33-.48.22-.86.33-1.12.33s-.48-.21-.66-.63c-.17-.42-.26-.76-.26-1.01,0-.22.05-.35.14-.4.09-.05.36-.07.8-.07.91,0,1.91-.24,3.02-.73,1.11-.48,2.21-.87,3.31-1.15.25-.06.37-.31.37-.75s-.13-.66-.4-.66-.53.07-.8.21c-.27.14-.48.21-.63.21-.37,0-.9-.48-1.57-1.43s-1.2-1.95-1.59-3c-.39-1.05-.59-1.69-.59-1.94s.1-.45.3-.59c.2-.14.69-.32,1.45-.54.77-.22,1.61-.39,2.53-.52.92-.12,2.52-.5,4.8-1.12.5-.12,1.06-.19,1.69-.19s1.52.3,2.67.91c1.16.61,1.73,1.1,1.73,1.48s-.19.7-.56.98c-2,1.63-3.06,2.66-3.19,3.12-.13.45-.25.77-.37.94-.13.17-.3.27-.54.28s-.46.02-.68.02c-.72,0-1.08.27-1.08.82s.14.81.42.77c2-.37,3.66-.56,4.97-.56.75,0,1.33.3,1.73.91.41.61.61,1.08.61,1.41s-.13.59-.37.77c-.25.19-.58.27-.98.23-1.84-.16-3.11-.23-3.8-.23s-1.28.04-1.78.12-.78.18-.84.3c-.06.12-.09.27-.09.42v1.08ZM31,58.69c1.22,0,1.91-.15,2.06-.45s.23-1.38.23-3.26c0-.22-.09-.33-.28-.33s-.57.04-1.15.12c-.58.08-.9.16-.96.26l-.8,1.45c-.47.81-.7,1.33-.7,1.55s.17.38.52.49c.34.11.7.16,1.08.16ZM36.01,45.09c0-1-.28-1.5-.84-1.5-.37,0-1,.26-1.88.77-.87.52-1.31,1.17-1.31,1.97s.3,1.2.89,1.2,1.27-.16,2.02-.47c.75-.31,1.12-.97,1.12-1.97Z"/><path class="cls-1" d="M46.65,102.65h-.09c-1.12-.09-2.28-.14-3.47-.14s-2.38.09-3.59.26c-1.2.17-2.22.36-3.05.56s-1.3.38-1.43.54c-.12.16-.27.6-.45,1.34-.17.73-.26,1.31-.26,1.71s.13.61.4.61.82-.12,1.66-.35c.84-.23,1.66-.35,2.44-.35s1.82.29,3.12.87c1.3.58,2.11,1.02,2.44,1.31.33.3.49.6.49.91,0,.28-.2.65-.59,1.1-.39.45-.92,1.19-1.59,2.2s-1.01,1.62-1.01,1.8v1.88c0,.72-.84,1.14-2.53,1.27-2.69.16-5.44.64-8.25,1.45-.31.09-.62.14-.91.14s-.51-.14-.63-.42c-.37-.72-.87-1.34-1.48-1.87-.61-.53-1.38-1.72-2.32-3.56-.94-1.84-1.41-2.94-1.41-3.28,0-.56.65-.87,1.95-.94,1.3-.06,2.23-.18,2.81-.35.58-.17.92-.41,1.03-.73.11-.31.28-.97.52-1.97.23-1,.35-1.66.35-1.97s-.16-.47-.49-.47-1.09.12-2.3.37c-1.2.25-2.34.59-3.4,1.03-.22.09-.41.14-.56.14s-.31-.12-.47-.37c-.16-.25-.36-.7-.61-1.36-.06-.16-.16-.23-.3-.23s-.42.23-.82.7c-.41.47-.81.92-1.22,1.36-.41.44-.87,1.15-1.38,2.13-.52.98-.79,1.78-.82,2.39-.03.61-.24.99-.63,1.15-.39.16-.94.55-1.64,1.17-.7.63-1.62,1.1-2.74,1.41s-1.85.47-2.18.47-.49-.09-.49-.28c0-.37,1.52-1.98,4.55-4.83.62-.59,1.34-1.46,2.13-2.6.8-1.14,1.64-2.62,2.53-4.45.89-1.83,1.61-3.55,2.16-5.15.55-1.61.89-2.95,1.03-4.01.14-1.06.21-2.53.21-4.41,0-1.41.44-2.11,1.31-2.11.16,0,.41.05.75.14.34.09.77.14,1.27.14,1.19,0,3.39-.52,6.61-1.55,1.41-.44,2.65-.66,3.73-.66s2.23.26,3.44.77c1.22.52,1.83,1.05,1.83,1.62,0,.19-.12.39-.37.61-.25.22-.59.61-1.01,1.17-.42.56-.8,1.15-1.12,1.76-.33.61-.52,1.04-.56,1.29-.05.25-.07.74-.07,1.48s-.04,1.17-.12,1.29-.41.23-1.01.3c-.59.08-1.05.16-1.36.26-.31.09-.5.2-.56.33-.06.12-.13.56-.19,1.29-.06.73-.09,1.36-.09,1.87s.16.77.47.77l5.39-.94c1.09-.16,1.84-.32,2.23-.49.39-.17.68-.26.87-.26.44,0,.98.47,1.64,1.41.66.94.98,1.73.98,2.37s-.25.96-.75.96ZM31.98,97.21c0-.75-.12-1.12-.37-1.12s-.98.12-2.2.35c-1.22.23-2.01.41-2.39.52-.37.11-.66.23-.87.37-.2.14-.45.51-.73,1.1-.28.59-.56,1.17-.82,1.71-.27.55-.4.96-.4,1.24,0,.22.17.33.52.33.59,0,1.75-.17,3.47-.52,1.72-.34,2.71-.56,2.98-.63.27-.08.47-.53.61-1.36.14-.83.21-1.49.21-1.99ZM27.81,93.09c.37,0,1.38-.16,3.02-.47,1.64-.31,2.68-.58,3.12-.8.44-.22.8-.59,1.08-1.12.28-.53.42-1.1.42-1.71s-.36-.91-1.08-.91-2.02.31-3.91.94c-1.89.63-2.91,1.02-3.07,1.2-.16.17-.23.62-.23,1.36s.04,1.17.12,1.31c.08.14.26.21.54.21ZM31.19,115.21c.09,0,.2-.02.33-.05,1.28-.31,2.77-.53,4.45-.66.81-.06,1.45-.41,1.9-1.03s.68-1.48.68-2.58c0-.44-.1-.75-.3-.94-.2-.19-.69-.28-1.45-.28s-2.01.24-3.73.73c-1.72.48-2.75.79-3.09.91-.34.13-.52.41-.52.84s.12,1.06.37,1.85c.25.8.7,1.2,1.36,1.2Z"/></g></svg>